HIERARCHY
ROOT Hips
{
	OFFSET -0.179506 -22.333345 2.821913
	CHANNELS 6 Xposition Yposition Zposition Zrotation Yrotation Xrotation 
	JOINT LeftUpLeg
	{
		OFFSET 6.951974 -9.140623 -0.681533
		CHANNELS 3 Zrotation Yrotation Xrotation
		JOINT LeftLeg
		{
			OFFSET 3.427654 -37.519855 -0.449580
			CHANNELS 3 Zrotation Yrotation Xrotation
			JOINT LeftFoot
			{
				OFFSET -1.359570 -39.796059 -4.369333
				CHANNELS 3 Zrotation Yrotation Xrotation
				JOINT LeftToe
				{
					OFFSET 2.635814 -5.579078 11.928840
					CHANNELS 3 Zrotation Yrotation Xrotation
					End Site
					{
						OFFSET 0.000000 0.000000 0.000000
					}
				}
			}
		}
	}
	JOINT RightUpLeg
	{
		OFFSET -6.767048 -9.052170 -0.431982
		CHANNELS 3 Zrotation Yrotation Xrotation
		JOINT RightLeg
		{
			OFFSET -3.829005 -38.256897 -0.885003
			CHANNELS 3 Zrotation Yrotation Xrotation
			JOINT RightFoot
			{
				OFFSET 1.577377 -39.841461 -4.231180
				CHANNELS 3 Zrotation Yrotation Xrotation
				JOINT RightToe
				{
					OFFSET -2.537174 -4.814398 12.334795
					CHANNELS 3 Zrotation Yrotation Xrotation
					End Site
					{
						OFFSET 0.000000 0.000000 0.000000
					}
				}
			}
		}
	}
	JOINT Spine
	{
		OFFSET -0.253288 10.896323 -2.669631
		CHANNELS 3 Zrotation Yrotation Xrotation
		JOINT Spine1
		{
			OFFSET 0.548704 13.518043 0.109247
			CHANNELS 3 Zrotation Yrotation Xrotation
			JOINT Spine2
			{
				OFFSET 0.145701 5.292222 2.542457
				CHANNELS 3 Zrotation Yrotation Xrotation
				JOINT Neck
				{
					OFFSET -0.277840 21.387037 -4.285703
					CHANNELS 3 Zrotation Yrotation Xrotation
					JOINT Head
					{
						OFFSET 0.515184 6.496960 5.134897
						CHANNELS 3 Zrotation Yrotation Xrotation
						End Site
						{
							OFFSET 0.000000 0.000000 0.000000
						}
					}
				}
				JOINT LeftShoulder
				{
					OFFSET 7.884473 12.174932 -3.408961
					CHANNELS 3 Zrotation Yrotation Xrotation
					JOINT LeftArm
					{
						OFFSET 9.097692 3.046888 -0.886815
						CHANNELS 3 Zrotation Yrotation Xrotation
						JOINT LeftForeArm
						{
							OFFSET 25.961220 -1.277207 -2.745643
							CHANNELS 3 Zrotation Yrotation Xrotation
							JOINT LeftHand
							{
								OFFSET 24.923361 0.898606 -0.117091
								CHANNELS 3 Zrotation Yrotation Xrotation
								End Site
								{
									OFFSET 0.000000 0.000000 0.000000
								}
							}
						}
					}
				}
				JOINT RightShoulder
				{
					OFFSET -8.175920 11.883285 -3.861528
					CHANNELS 3 Zrotation Yrotation Xrotation
					JOINT RightArm
					{
						OFFSET -9.601238 3.255117 -0.914307
						CHANNELS 3 Zrotation Yrotation Xrotation
						JOINT RightForeArm
						{
							OFFSET -25.374195 -1.332924 -2.140099
							CHANNELS 3 Zrotation Yrotation Xrotation
							JOINT RightHand
							{
								OFFSET -25.529810 0.777228 -0.555919
								CHANNELS 3 Zrotation Yrotation Xrotation
								End Site
								{
									OFFSET 0.000000 0.000000 0.000000
								}
							}
						}
					}
				}
			}
		}
	}
}
MOTION
Frames: 9
Frame Time: 0.033333
-305.056549 -301.973846 81.543892 143.481039 -0.591324 105.308450 -2.570241 -1.731967 -10.071014 -10.762372 -1.097876 44.718214 5.555189 25.305998 -46.987927 nan nan nan -3.618089 1.703341 -44.044214 8.580702 -12.311204 66.766455 -1.412233 -6.783907 -34.006940 nan nan nan 1.616574 -2.907572 16.788010 4.373139 0.393205 6.950656 1.289042 -1.129559 -4.181616 -5.105886 0.067899 -14.028640 0.357318 1.502688 -14.276534 -23.921876 0.841213 0.633700 -64.630728 -0.931167 20.037304 11.766083 -45.573653 -1.426853 6.029332 -20.857874 -12.790075 23.886883 3.984514 0.133698 52.963079 -4.843545 10.250840 -15.727367 48.416390 -17.500201 -15.945028 17.474244 -35.643405 
-303.866150 -300.533661 81.435890 143.000211 -0.748268 104.289018 -2.463806 -2.417068 -11.633228 -11.275305 -1.254763 46.106853 5.723922 25.174117 -47.414795 nan nan nan -3.244575 1.888962 -40.956561 9.139894 -11.040313 65.895108 -1.401863 -6.903398 -35.150034 nan nan nan 1.410258 -2.105521 17.228537 4.189565 0.107529 7.745519 1.323411 -0.987149 -3.987022 -4.877072 0.088187 -13.757774 0.715996 1.790297 -14.517396 -24.505127 0.706211 0.864036 -64.118940 -0.264463 19.608599 11.102024 -44.677474 -0.868079 7.275104 -20.978941 -12.722818 24.210669 4.789990 0.448836 52.590781 -3.711552 9.983284 -16.189955 48.291442 -18.576320 -17.584449 17.463975 -36.133418 
-302.713806 -299.255615 81.415794 142.030707 -0.764375 103.941880 -1.857585 -3.034487 -12.171712 -11.860575 0.600263 53.293201 5.449727 26.001550 -49.980761 nan nan nan -2.887485 2.342753 -38.380297 9.467316 -9.948397 64.429833 -1.739298 -6.939356 -36.313154 nan nan nan 1.089504 -1.115310 17.182901 4.102130 0.271800 8.761434 1.313282 -0.704412 -4.035082 -4.749351 0.539672 -13.116113 1.039956 2.091215 -15.545016 -25.032978 0.626579 1.132945 -63.663850 0.248883 19.277199 10.779582 -43.671927 -0.254849 7.752855 -21.283574 -12.364573 24.564304 5.634788 0.493402 51.898395 -2.520362 9.323827 -17.215709 48.577003 -20.212681 -18.695071 17.680304 -36.535527 
-301.702820 -298.020844 81.542130 141.044094 -0.727840 103.547232 -1.413925 -3.661725 -15.169656 -11.967780 1.714681 55.590706 5.645591 25.650339 -50.068891 nan nan nan -2.411690 2.747311 -35.743536 9.527517 -8.700612 62.734427 -1.743186 -6.818004 -37.153703 nan nan nan 1.207762 -0.167211 17.946977 3.618039 0.301594 8.716260 1.246198 -0.561637 -4.029425 -4.624447 0.924700 -12.851772 1.090579 1.689879 -15.945293 -25.176674 0.489056 0.635052 -63.350024 1.768459 19.044607 10.015748 -42.746385 0.114023 8.887133 -22.107411 -12.093997 24.658101 7.101009 0.890805 52.452946 -2.989536 11.918550 -9.828755 51.482895 -11.056231 -19.584281 19.587381 -36.040248 
-300.478394 -296.696930 81.525940 140.633353 -0.795899 102.980006 -0.847128 -3.918901 -18.100610 -11.736591 3.309954 57.920476 5.929384 25.741288 -49.790896 nan nan nan -1.917449 2.576216 -32.686196 9.520989 -7.764629 61.107739 -1.855989 -7.285119 -38.076522 nan nan nan 1.055571 0.797589 18.444579 3.455740 0.112997 9.077509 1.214542 -0.497864 -4.134374 -4.106841 0.181962 -13.800223 0.707941 0.975798 -15.192589 -24.958176 0.895468 0.921803 -63.395446 2.518144 18.761805 9.488466 -42.277931 1.411294 9.366659 -21.542337 -11.901067 24.601147 7.419045 0.872031 52.442236 -1.709121 12.095020 -10.619799 53.045748 -11.582566 -20.994607 19.047817 -36.283944 
-299.379547 -295.340302 81.593613 140.190692 -0.964627 102.758964 -0.461391 -4.424928 -21.513843 -11.624132 4.877108 60.836655 6.194891 25.603063 -49.436332 nan nan nan -1.706871 2.429039 -29.965510 9.502424 -6.708132 59.135152 -1.942757 -7.801151 -38.820817 nan nan nan 1.021776 1.711712 18.888166 3.214130 -0.076891 8.943135 1.166139 -0.322660 -4.124641 -3.854961 -0.428786 -13.967792 0.584115 0.705421 -15.072924 -24.898392 1.215839 1.164620 -63.291353 3.380500 18.693830 8.706007 -41.668008 3.025444 10.922159 -21.133754 -12.496926 24.267921 7.692528 0.815444 52.650391 -0.853306 12.239654 -11.226336 54.825264 -12.132819 -23.339258 18.430693 -37.488849 
-298.137604 -294.177521 81.677345 139.219743 -1.013279 103.396405 1.212933 -5.796020 -25.625787 -12.440274 9.615683 85.027355 5.416341 26.953742 -58.208851 nan nan nan -1.450434 3.104089 -28.218823 9.616847 -5.902940 56.842768 -3.033810 -8.589262 -39.172983 nan nan nan 0.266283 2.969131 18.140865 3.519315 0.104324 9.277216 1.107178 -0.087347 -4.279625 -3.778407 -0.595840 -13.198777 0.493391 0.451826 -16.438797 -25.185821 1.978118 2.023280 -62.527882 3.496694 18.383816 7.737423 -41.254687 4.117561 11.636716 -20.964767 -12.640789 24.375081 8.368440 1.091296 52.505185 -0.412840 11.386220 -10.296660 57.384884 -12.007271 -25.457561 17.922509 -40.556961 
-297.116272 -292.480957 81.800728 140.073079 -1.857492 102.895011 0.789214 -7.145258 -28.970967 -12.872683 10.320800 87.026027 5.934014 26.312360 -57.767941 nan nan nan -1.645328 3.136874 -25.069710 9.275577 -4.892251 54.992202 -2.987465 -9.376144 -39.540761 nan nan nan 0.589340 3.359897 18.851583 3.129120 -0.643595 8.842060 0.908319 -0.118584 -4.162374 -3.952742 -1.686023 -13.286351 0.623035 0.776644 -16.653188 -25.204459 2.035134 2.349874 -62.200837 4.664740 18.392566 6.522898 -41.269185 4.873460 14.267987 -20.853610 -14.873473 23.678200 8.596791 0.578999 52.498654 -0.107607 11.802525 -9.663720 59.530956 -12.125516 -28.222463 17.350632 -42.712462 
-295.781250 -290.864410 81.948120 139.452714 -1.719692 101.908982 1.310365 -5.949959 -32.085603 -9.900010 13.127740 89.298575 5.706549 26.802713 -55.636331 nan nan nan -1.219865 2.464143 -20.720195 8.979858 -3.899020 52.144124 -3.226249 -9.113176 -40.305630 nan nan nan 1.025455 4.483582 19.240809 2.803033 -0.864505 9.448413 0.735002 0.141514 -4.006415 -3.628267 -1.643194 -13.243977 0.332698 0.127138 -17.074479 -25.022268 2.387217 2.623957 -61.969519 5.439111 18.106435 4.296152 -41.684253 4.941106 17.629670 -20.624797 -18.564238 23.301072 8.766541 0.619928 52.753661 0.403472 11.789063 -9.348420 62.261009 -13.680100 -31.512733 16.035890 -45.088455 
